<?xml version="1.0" encoding="UTF-8"?>
<!DOCTYPE svg PUBLIC "-//W3C//DTD SVG 1.1//EN" "http://www.w3.org/Graphics/SVG/1.1/DTD/svg11.dtd">
<!-- Creator: CorelDRAW 2021 (64-Bit) -->
<svg xmlns="http://www.w3.org/2000/svg" xml:space="preserve" width="1.83496in" height="1.55026in" version="1.1" style="shape-rendering:geometricPrecision; text-rendering:geometricPrecision; image-rendering:optimizeQuality; fill-rule:evenodd; clip-rule:evenodd"
viewBox="0 0 182.55 154.23"
 xmlns:xlink="http://www.w3.org/1999/xlink"
 xmlns:xodm="http://www.corel.com/coreldraw/odm/2003">
 <defs>
  <style type="text/css">
   <![CDATA[
    .fil0 {fill:#1E1E1E}
   ]]>
  </style>
 </defs>
 <g id="Layer_x0020_1">
  <metadata id="CorelCorpID_0Corel-Layer"/>
  <path class="fil0" d="M155.66 49.47c-4.51,-3.23 -24.18,-3.81 -21.98,-32.34 -22.11,-13.21 -37.06,-6.38 -52.31,6.94 -3.47,3.03 -5.84,6.38 -9.08,9.68 -3.23,3.28 -6.48,5.56 -9.45,8.57 -16.96,17.18 -44.2,25.34 -36.77,51.79 2.36,8.4 3.99,4.37 -0.76,12.07 -2.06,3.34 -5.42,8.14 -7.07,11.72l-7.99 19.06c-2.9,6.16 -6.23,1.62 -10.23,17.26 16.33,-3.48 19.36,-17.52 24.16,-28.9 2.09,-4.96 2.57,-3.3 7.2,-6.3 10.78,-6.98 20.11,-13.79 27.25,-24.58 7.24,-10.94 2.14,-5.59 24.1,-14.92 4.43,-1.88 14.18,-7.07 18.89,-6.05 4.62,1.01 16.66,3.2 20.03,5.28 -11.94,15.46 -14.9,4.34 -19.28,21.77 14.14,-2.05 19.81,-10.28 26.51,-16.93 3.5,-3.47 9.4,-7.52 1.97,-12.39 -3.1,-2.03 -9.83,-6.8 -12.83,-8.07 0.54,-3.78 2.74,-7.31 4.14,-11.07 1.17,-3.13 0.96,-3.59 8.97,-5.89 -0.97,3.39 -2.23,4.59 -1.61,8.55 3.23,6.68 16.25,-1.78 26.15,-5.26zm-154.34 34.69c14.37,4.33 14.74,-4.5 18.72,-7.26 2.95,-2.05 3.79,-0.62 4.73,-4.89 -8.66,-6.31 -12.26,7.54 -19.57,10.32l-3.88 1.84zm174.95 -45.8c-8.56,0.53 -12.33,2.81 -19.65,-2.67 -3.69,-2.76 -8.74,-9.97 -4.98,-17.22 5.41,-10.43 22.56,-0.12 14.45,9.97 -2.28,2.83 -5,3 -9.22,3.45 1.43,0.56 3.29,3.17 7.78,4.1 14.55,3.01 21,-7.2 16.48,-20.33 -7.31,-21.24 -38.47,-21.06 -44.21,1.6 -3.56,14.04 6.43,27.83 20.9,28.71 5.76,0.35 10.82,-1.45 15.3,-4.54 2.26,-1.56 1.5,-1.58 3.15,-3.07z"/>
 </g>
</svg>
